<?xml version="1.0" encoding="UTF-8" standalone="no"?>
<svg
   width="501.68"
   height="501.68"
   version="1.1"
   viewBox="0 0 132.74 132.74"
   id="svg35"
   sodipodi:docname="cake.svg"
   inkscape:version="1.1.1 (3bf5ae0d25, 2021-09-20)"
   inkscape:export-filename="G:\Projects\Minecraft\branding\mods\cake_filled.png"
   inkscape:export-xdpi="195.95"
   inkscape:export-ydpi="195.95"
   xmlns:inkscape="http://www.inkscape.org/namespaces/inkscape"
   xmlns:sodipodi="http://sodipodi.sourceforge.net/DTD/sodipodi-0.dtd"
   xmlns:xlink="http://www.w3.org/1999/xlink"
   xmlns="http://www.w3.org/2000/svg"
   xmlns:svg="http://www.w3.org/2000/svg">
  <sodipodi:namedview
     id="namedview37"
     pagecolor="#ffffff"
     bordercolor="#666666"
     borderopacity="1.0"
     inkscape:pageshadow="2"
     inkscape:pageopacity="0.0"
     inkscape:pagecheckerboard="0"
     showgrid="true"
     inkscape:zoom="1.1867803"
     inkscape:cx="244.77994"
     inkscape:cy="270.90104"
     inkscape:window-width="1920"
     inkscape:window-height="1027"
     inkscape:window-x="-8"
     inkscape:window-y="-8"
     inkscape:window-maximized="1"
     inkscape:current-layer="g7617">
    <inkscape:grid
       type="xygrid"
       id="grid1014"
       visible="true"
       enabled="false" />
    <inkscape:grid
       type="axonomgrid"
       id="grid1016"
       originx="66.37"
       originy="66.37"
       enabled="false"
       spacingy="1.0000289" />
  </sodipodi:namedview>
  <defs
     id="defs19">
    <linearGradient
       inkscape:collect="always"
       id="linearGradient14907">
      <stop
         style="stop-color:#a1f787;stop-opacity:1"
         offset="0"
         id="stop14903" />
      <stop
         style="stop-color:#61f236;stop-opacity:0.75"
         offset="1"
         id="stop14905" />
    </linearGradient>
    <linearGradient
       id="a">
      <stop
         style="stop-color:#a08098"
         offset="0"
         id="stop2" />
      <stop
         style="stop-color:#600874"
         offset="1"
         id="stop4" />
    </linearGradient>
    <linearGradient
       id="d"
       x2="0"
       y2="134.94"
       gradientTransform="matrix(.79872 0 0 .80049 13.708 17.823)"
       gradientUnits="userSpaceOnUse">
      <stop
         style="stop-color:#a08098"
         offset="0"
         id="stop7" />
      <stop
         style="stop-color:#600874"
         offset="1"
         id="stop9" />
    </linearGradient>
    <linearGradient
       id="b"
       x2="-34.924"
       y2="130.34"
       gradientTransform="translate(-2.9559 4.8424)"
       gradientUnits="userSpaceOnUse"
       xlink:href="#a" />
    <linearGradient
       id="e"
       x2="0"
       y2="134.94"
       gradientTransform="matrix(0.79872,0,0,0.80049,13.633,17.869)"
       gradientUnits="userSpaceOnUse"
       xlink:href="#a" />
    <linearGradient
       id="c"
       x1="-15.783"
       x2="107.98"
       y1="87.293"
       y2="87.293"
       gradientUnits="userSpaceOnUse">
      <stop
         style="stop-color:#fff;stop-opacity:.9"
         offset="0"
         id="stop14" />
      <stop
         style="stop-color:#fff;stop-opacity:.8"
         offset="1"
         id="stop16" />
    </linearGradient>
    <linearGradient
       inkscape:collect="always"
       xlink:href="#d"
       id="linearGradient2108"
       x1="18.142071"
       y1="-2.7253432"
       x2="18.142071"
       y2="96.430397"
       gradientUnits="userSpaceOnUse" />
    <linearGradient
       inkscape:collect="always"
       xlink:href="#d"
       id="linearGradient2110"
       x1="18.142071"
       y1="-2.7253432"
       x2="18.142071"
       y2="96.430397"
       gradientUnits="userSpaceOnUse" />
    <linearGradient
       inkscape:collect="always"
       xlink:href="#d"
       id="linearGradient2112"
       x1="18.142071"
       y1="-2.7253432"
       x2="18.142071"
       y2="96.430397"
       gradientUnits="userSpaceOnUse" />
    <linearGradient
       inkscape:collect="always"
       xlink:href="#d"
       id="linearGradient10739"
       gradientUnits="userSpaceOnUse"
       gradientTransform="matrix(0.79872,0,0,0.80049,13.708,17.823)"
       x2="0"
       y2="134.94"
       x1="6.6155422e-07"
       y1="-5.5592334e-08" />
    <linearGradient
       inkscape:collect="always"
       xlink:href="#d"
       id="linearGradient14081"
       x1="18.142071"
       y1="-2.7253432"
       x2="18.142071"
       y2="96.430397"
       gradientUnits="userSpaceOnUse" />
    <linearGradient
       inkscape:collect="always"
       xlink:href="#d"
       id="linearGradient14083"
       x1="18.142071"
       y1="-2.7253432"
       x2="18.142071"
       y2="96.430397"
       gradientUnits="userSpaceOnUse" />
    <linearGradient
       inkscape:collect="always"
       xlink:href="#linearGradient14907"
       id="linearGradient14688"
       x1="44.399174"
       y1="24.63475"
       x2="98.849899"
       y2="56.071896"
       gradientUnits="userSpaceOnUse" />
    <linearGradient
       inkscape:collect="always"
       xlink:href="#linearGradient14907"
       id="linearGradient14690"
       x1="44.399174"
       y1="24.63475"
       x2="98.849899"
       y2="56.071896"
       gradientUnits="userSpaceOnUse" />
    <linearGradient
       inkscape:collect="always"
       xlink:href="#linearGradient14907"
       id="linearGradient14692"
       x1="44.399174"
       y1="24.63475"
       x2="98.849899"
       y2="56.071896"
       gradientUnits="userSpaceOnUse" />
  </defs>
  <g
     transform="matrix(1.1133649,0,0,1.1133649,-9.0423091,-13.893144)"
     id="g33">
    <g
       id="g31"
       style="display:inline">
      <g
         id="g25"
         style="display:inline">
        <ellipse
           cx="67.733002"
           cy="72.088997"
           rx="37.077"
           ry="37.159"
           style="display:inline;fill:url(#e);paint-order:stroke fill markers"
           id="ellipse21" />
        <path
           d="m 64.626,123.24 c -0.77477,-0.0797 -1.2141,-0.33624 -1.4524,-0.84855 -0.0886,-0.19047 -0.2301,-1.0892 -0.32741,-2.0794 -0.24812,-2.5248 -0.38997,-2.7329 -2.0727,-3.04 -1.643,-0.29996 -2.142,-0.2363 -2.6444,0.33733 -0.11587,0.13231 -0.55089,0.994 -0.96671,1.9148 -0.82703,1.8314 -1.0164,2.06 -1.7788,2.1461 -0.63101,0.0712 -2.0521,-0.33825 -2.4798,-0.71465 -0.52382,-0.46095 -0.55597,-0.73667 -0.32545,-2.7911 0.11189,-0.99721 0.17353,-1.9729 0.13698,-2.1682 -0.1094,-0.58442 -0.60535,-0.96876 -1.8773,-1.4549 -1.2752,-0.48737 -1.3862,-0.50294 -1.9556,-0.27458 -0.32984,0.13226 -0.616,0.44467 -1.5845,1.7298 -1.2554,1.6659 -1.4893,1.8578 -2.24,1.8382 -0.49625,-0.013 -1.8459,-0.70082 -2.2307,-1.1369 -0.51862,-0.58778 -0.50102,-0.84608 0.19757,-2.8983 0.34434,-1.0116 0.62607,-1.9422 0.62607,-2.068 0,-0.12583 -0.09369,-0.42277 -0.2082,-0.65982 -0.16873,-0.34933 -0.417,-0.56941 -1.3096,-1.1609 -0.91986,-0.60956 -1.1712,-0.72984 -1.5253,-0.72984 -0.23316,0 -0.53058,0.041 -0.66091,0.091 -0.13034,0.0501 -0.8358,0.60879 -1.5677,1.2416 -1.5087,1.3045 -1.831,1.4854 -2.4737,1.3888 -0.55667,-0.0837 -1.7172,-0.99661 -2.0638,-1.6235 -0.38356,-0.69375 -0.28933,-1.0181 0.83836,-2.886 0.84948,-1.407 0.98661,-1.6967 0.98661,-2.0842 0,-0.24751 -0.05371,-0.55085 -0.11935,-0.67409 -0.19767,-0.37113 -1.6519,-1.9228 -1.9484,-2.079 -0.49931,-0.263 -1.0863,-0.18147 -1.9244,0.2673 -2.5325,1.3561 -2.769,1.4562 -3.2664,1.3825 -0.38002,-0.0563 -0.55787,-0.16099 -0.93045,-0.54777 -0.77763,-0.80727 -1.127,-1.4187 -1.1188,-1.9577 0.004,-0.25834 0.03879,-0.54962 0.07741,-0.64728 0.03863,-0.0977 0.64572,-0.78544 1.3491,-1.5284 0.70338,-0.74296 1.3348,-1.4479 1.4032,-1.5664 0.06837,-0.11859 0.12596,-0.42547 0.12795,-0.68196 0.003,-0.39208 -0.09639,-0.63348 -0.62432,-1.5157 -1.1111,-1.8567 -1.2191,-1.889 -3.8289,-1.143 -1.7211,0.49193 -1.9276,0.53009 -2.2862,0.42242 -0.54741,-0.16437 -0.90298,-0.55636 -1.3056,-1.4394 -0.39926,-0.87556 -0.45032,-1.5315 -0.1567,-2.0133 0.11156,-0.18308 0.82827,-0.73391 1.7691,-1.3596 0.97092,-0.64574 1.6518,-1.171 1.7634,-1.3604 0.2743,-0.46538 0.23103,-0.99139 -0.18432,-2.2406 -0.39799,-1.197 -0.74825,-1.6716 -1.3444,-1.8216 -0.1435,-0.0361 -1.0851,-0.01412 -2.0924,0.04886 -1.9516,0.122 -2.1944,0.09201 -2.6428,-0.32644 -0.35248,-0.32892 -0.48532,-0.64 -0.67707,-1.5855 -0.13624,-0.67183 -0.14805,-0.9216 -0.05671,-1.199 0.2274,-0.69055 0.43092,-0.82894 2.2811,-1.5512 2.5453,-0.99356 2.6375,-1.1092 2.4382,-3.0554 -0.21807,-2.1292 -0.32356,-2.2218 -3.0149,-2.6461 -2.0582,-0.3245 -2.2344,-0.40005 -2.5986,-1.1145 -0.32786,-0.64305 -0.32786,-1.9175 0,-2.5605 0.36428,-0.71449 0.54044,-0.79005 2.5986,-1.1145 2.6914,-0.42432 2.7969,-0.51691 3.0149,-2.6461 0.19933,-1.9462 0.10708,-2.0619 -2.4382,-3.0554 -1.8502,-0.72223 -2.0537,-0.86063 -2.2811,-1.5512 -0.09135,-0.27741 -0.07953,-0.52719 0.05671,-1.199 0.19175,-0.94555 0.32459,-1.2566 0.67707,-1.5855 0.44843,-0.41845 0.69125,-0.44844 2.6428,-0.32644 1.0073,0.06297 1.9489,0.08496 2.0924,0.04886 0.59617,-0.14996 0.94643,-0.62454 1.3444,-1.8216 0.41535,-1.2492 0.45862,-1.7753 0.18432,-2.2406 -0.11164,-0.18941 -0.79248,-0.71466 -1.7634,-1.3604 -0.9408,-0.62572 -1.6575,-1.1765 -1.7691,-1.3596 -0.29361,-0.48185 -0.24256,-1.1378 0.1567,-2.0133 0.40267,-0.88302 0.75824,-1.275 1.3056,-1.4394 0.35858,-0.10767 0.56508,-0.06951 2.2862,0.42242 2.6098,0.74595 2.7178,0.71372 3.8289,-1.143 0.52793,-0.8822 0.62737,-1.1236 0.62432,-1.5157 -0.002,-0.2565 -0.05957,-0.56338 -0.12795,-0.68197 -0.06837,-0.11858 -0.69982,-0.82349 -1.4032,-1.5664 -0.70338,-0.74296 -1.3105,-1.4307 -1.3491,-1.5284 -0.03862,-0.09767 -0.07346,-0.38894 -0.07742,-0.64728 -0.0082,-0.53899 0.34116,-1.1504 1.1188,-1.9577 0.37258,-0.38678 0.55043,-0.49149 0.93045,-0.54778 0.49738,-0.07366 0.73391,0.02643 3.2664,1.3825 0.83809,0.44876 1.4251,0.53029 1.9244,0.26729 0.29652,-0.15619 1.7507,-1.7078 1.9484,-2.079 0.06565,-0.12324 0.11935,-0.4269 0.11935,-0.67478 0,-0.3836 -0.12467,-0.65572 -0.8374,-1.8277 -1.3696,-2.2521 -1.4063,-2.3701 -0.97953,-3.1513 0.33677,-0.61647 1.5011,-1.5306 2.0558,-1.614 0.64279,-0.09661 0.96502,0.0843 2.4737,1.3888 0.73189,0.63282 1.4373,1.1915 1.5677,1.2416 0.13034,0.05006 0.42775,0.09102 0.66092,0.09102 0.35407,0 0.60544,-0.12028 1.5253,-0.72984 0.89256,-0.59147 1.1408,-0.81156 1.3096,-1.1609 0.11451,-0.23707 0.2082,-0.53399 0.2082,-0.65982 0,-0.12583 -0.28173,-1.0564 -0.62607,-2.068 -0.69859,-2.0522 -0.71619,-2.3105 -0.19757,-2.8983 0.38479,-0.43611 1.7345,-1.124 2.2307,-1.1369 0.75066,-0.01957 0.98458,0.17239 2.24,1.8383 0.96849,1.2852 1.2546,1.5976 1.5845,1.7298 0.56945,0.22835 0.68039,0.21278 1.9556,-0.27458 1.272,-0.48612 1.768,-0.87047 1.8773,-1.4549 0.03655,-0.19529 -0.02508,-1.171 -0.13698,-2.1682 -0.23052,-2.0544 -0.19838,-2.3302 0.32545,-2.7911 0.42775,-0.3764 1.8488,-0.78594 2.4798,-0.71466 0.76238,0.08612 0.95178,0.31464 1.7788,2.1461 0.41583,0.92084 0.85085,1.7825 0.96671,1.9148 0.50232,0.57364 1.0013,0.6373 2.6444,0.33735 1.6827,-0.3072 1.8246,-0.51526 2.0727,-3.0401 0.18457,-1.8782 0.30781,-2.2896 0.7888,-2.6328 0.45958,-0.32798 2.0926,-0.47343 2.701,-0.24057 0.75645,0.28953 0.87574,0.52515 1.3038,2.5751 0.54786,2.624 0.66265,2.7447 2.7184,2.8586 1.2524,0.06942 1.3545,0.06055 1.7285,-0.15013 0.52521,-0.29584 0.65154,-0.53315 1.2096,-2.2722 0.62436,-1.9457 0.74399,-2.1673 1.3209,-2.4472 0.44502,-0.21591 0.51283,-0.22117 1.3085,-0.10148 1.0335,0.15545 1.6337,0.40458 1.8798,0.78019 0.16199,0.24728 0.1948,0.57864 0.23895,2.4133 0.05558,2.3091 0.0784,2.3999 0.72286,2.8774 0.38435,0.28478 2.4301,0.82873 2.8907,0.76863 0.61916,-0.08078 0.93823,-0.4281 1.9428,-2.1149 0.51898,-0.8714 1.0627,-1.6711 1.2084,-1.7772 0.48589,-0.35383 1.026,-0.34505 2.0005,0.03254 0.9774,0.37871 1.4123,0.74011 1.5672,1.3024 0.08658,0.31425 0.03511,0.6768 -0.31453,2.2157 -0.4432,1.9506 -0.45654,2.3197 -0.10188,2.8189 0.24713,0.34783 2.2367,1.4342 2.7633,1.5088 0.60061,0.08512 1.038,-0.21402 2.329,-1.593 1.4126,-1.5088 1.6444,-1.6703 2.3127,-1.6119 0.71811,0.06279 2.039,0.95296 2.3406,1.5773 0.14619,0.30267 0.2032,0.569 0.16801,0.78491 -0.02931,0.17974 -0.40306,1.0654 -0.83059,1.9682 -1.1,2.3227 -1.0752,2.5259 0.46587,3.8195 1.0438,0.87617 1.1817,0.95086 1.7564,0.95086 0.40992,0 0.62176,-0.11242 2.1265,-1.1285 1.4894,-1.0058 1.7195,-1.1285 2.1156,-1.1285 0.59649,0 0.88141,0.16618 1.6356,0.95397 0.6708,0.70067 0.84586,1.0153 0.84586,1.5199 0,0.43011 -0.16817,0.71515 -1.2381,2.0983 -1.189,1.5371 -1.3212,1.7579 -1.316,2.1986 0.006,0.49447 0.14748,0.76932 0.91626,1.7779 0.70175,0.92062 1.2048,1.2998 1.7243,1.2998 0.17299,0 1.1212,-0.32316 2.1071,-0.71812 0.98594,-0.39497 1.8945,-0.71812 2.0191,-0.71812 0.1246,0 0.42447,0.09603 0.6664,0.2134 0.35775,0.17357 0.53573,0.3725 0.95357,1.0658 0.45239,0.75062 0.51372,0.92017 0.51372,1.4202 0,0.71531 -0.0921,0.8294 -1.8382,2.2766 -1.9125,1.5851 -1.9629,1.7748 -0.99451,3.7436 0.82401,1.6753 0.99274,1.7359 3.5694,1.2829 0.8024,-0.14106 1.6121,-0.25647 1.7992,-0.25647 0.40062,0 0.80327,0.19178 1.1229,0.53485 0.30747,0.33 0.74269,1.6414 0.74269,2.2379 0,0.82065 -0.24271,1.0538 -2.0994,2.0165 -2.3977,1.2433 -2.4892,1.3937 -2.0549,3.381 0.42313,1.9363 0.62199,2.092 2.8152,2.2036 0.82095,0.0418 1.6816,0.07919 1.9126,0.08308 0.49361,0.0083 1.0223,0.3285 1.284,0.77754 0.0987,0.16946 0.23106,0.73261 0.29399,1.2514 0.10476,0.8634 0.0973,0.98214 -0.0877,1.4013 -0.11116,0.25186 -0.31689,0.5333 -0.4572,0.62543 -0.14029,0.09213 -1.0083,0.37086 -1.9289,0.61941 -2.7219,0.73488 -2.6974,0.70881 -2.6974,2.8723 0,2.16349 -0.0245,2.1374 2.6974,2.8723 0.92059,0.24854 1.7886,0.52728 1.9289,0.61941 0.14031,0.09213 0.34604,0.37357 0.4572,0.62543 0.18498,0.41912 0.19242,0.53786 0.0877,1.4013 -0.063,0.51883 -0.19523,1.082 -0.29399,1.2514 -0.26167,0.44904 -0.7904,0.76922 -1.284,0.77754 -0.23095,0.004 -1.0916,0.04128 -1.9126,0.08309 -2.1932,0.11168 -2.3921,0.26734 -2.8152,2.2036 -0.43429,1.9873 -0.34285,2.1378 2.0549,3.381 1.8567,0.96276 2.0994,1.1959 2.0994,2.0165 0,0.59646 -0.43522,1.9079 -0.74269,2.2378 -0.31966,0.34307 -0.72231,0.53485 -1.1229,0.53485 -0.18719,0 -0.99685,-0.11541 -1.7992,-0.25647 -2.5767,-0.45298 -2.7454,-0.39233 -3.5694,1.2829 -0.96837,1.9688 -0.91798,2.1585 0.99451,3.7436 1.7461,1.4472 1.8382,1.5613 1.8382,2.2766 0,0.49998 -0.0613,0.66953 -0.51372,1.4202 -0.41784,0.69329 -0.59582,0.89222 -0.95357,1.0658 -0.24193,0.11737 -0.5418,0.2134 -0.6664,0.2134 -0.1246,0 -1.0332,-0.32315 -2.0191,-0.71812 -0.98592,-0.39497 -1.9341,-0.71812 -2.1071,-0.71812 -0.51954,0 -1.0226,0.37918 -1.7243,1.2998 -0.76878,1.0086 -0.91042,1.2834 -0.91626,1.7779 -0.006,0.44073 0.12698,0.66158 1.316,2.1986 1.0699,1.3832 1.2381,1.6682 1.2381,2.0983 0,0.50469 -0.17506,0.81929 -0.84586,1.52 -0.7542,0.78779 -1.0391,0.95397 -1.6356,0.95397 -0.39606,0 -0.62613,-0.12272 -2.1156,-1.1285 -1.5047,-1.0161 -1.7165,-1.1285 -2.1265,-1.1285 -0.57469,0 -0.71265,0.0747 -1.7564,0.95087 -1.5411,1.2936 -1.5658,1.4968 -0.46587,3.8195 0.42753,0.90279 0.8013,1.7885 0.83059,1.9682 0.03522,0.21592 -0.0218,0.48224 -0.16801,0.78491 -0.30159,0.62437 -1.6225,1.5145 -2.3406,1.5773 -0.66834,0.0584 -0.90007,-0.10307 -2.3127,-1.6119 -1.291,-1.3789 -1.7284,-1.6781 -2.329,-1.593 -0.52658,0.0747 -2.5161,1.161 -2.7633,1.5088 -0.35466,0.49918 -0.34132,0.86825 0.10188,2.8189 0.34964,1.5389 0.40111,1.9014 0.31453,2.2157 -0.1549,0.56225 -0.5898,0.92366 -1.5672,1.3024 -0.97452,0.37759 -1.5146,0.38638 -2.0005,0.0326 -0.14562,-0.10605 -0.68939,-0.90578 -1.2084,-1.7772 -1.0046,-1.6868 -1.3237,-2.0341 -1.9428,-2.1149 -0.46065,-0.0601 -2.5064,0.48385 -2.8907,0.76864 -0.64447,0.47752 -0.66729,0.56836 -0.72286,2.8774 -0.04416,1.8346 -0.07697,2.166 -0.23895,2.4133 -0.24604,0.37562 -0.8463,0.62475 -1.8798,0.7802 -0.79571,0.11968 -0.86353,0.11442 -1.3085,-0.10147 -0.57696,-0.27992 -0.69659,-0.50155 -1.3209,-2.4472 -0.55804,-1.739 -0.68438,-1.9763 -1.2096,-2.2722 -0.374,-0.21067 -0.47617,-0.21952 -1.7285,-0.15012 -2.055,0.11391 -2.1708,0.23542 -2.7172,2.8527 -0.41849,2.0044 -0.52538,2.2294 -1.2065,2.5394 -0.43514,0.19807 -0.68605,0.21141 -1.8085,0.0962 z m -4.6453,-15.244 c 1.0482,-0.27363 1.8589,-0.92573 2.3532,-1.8928 0.43989,-0.86068 0.45622,-1.1187 0.4575,-7.2258 0.0012,-5.7272 -0.0029,-5.8495 -0.21399,-6.2864 -0.28629,-0.5927 -0.68624,-0.87893 -1.7855,-1.2778 -1.873,-0.67962 -4.287,-2.0527 -5.7277,-3.2577 -1.0834,-0.90624 -1.4463,-1.0852 -2.2008,-1.0852 h -0.66535 l -4.9093,2.8212 c -4.1644,2.3931 -5.0039,2.9146 -5.5326,3.4367 -0.9178,0.90644 -1.125,1.3978 -1.125,2.6673 0,1.3421 0.1904,1.7473 1.3742,2.9248 3.9874,3.9659 9.6342,7.2824 15.157,8.9023 1.6412,0.48134 1.9182,0.50822 2.818,0.27333 z m 18.558,-0.25916 c 5.3211,-1.5442 10.814,-4.7279 14.938,-8.6575 1.3444,-1.2812 1.6994,-1.9326 1.6976,-3.1152 -0.0016,-1.1554 -0.29421,-1.837 -1.1518,-2.6846 -0.59485,-0.5879 -1.2545,-0.99963 -5.5731,-3.4785 -5.2499,-3.0134 -5.3785,-3.0707 -6.2422,-2.785 -0.20091,0.06645 -0.77055,0.44778 -1.2659,0.84739 -1.8207,1.4689 -3.8861,2.6604 -5.9163,3.413 -1.1239,0.4166 -1.5958,0.77326 -1.904,1.4389 -0.17772,0.38388 -0.19012,0.7752 -0.19222,6.0644 -0.0013,3.3999 0.03914,5.8744 0.10155,6.2066 0.35992,1.9162 2.0163,3.2682 3.8192,3.1174 0.32795,-0.0274 1.088,-0.19255 1.689,-0.36696 z m -7.9152,-22.303 c 5.5122,-1.2347 9.5818,-5.3936 10.66,-10.894 0.24157,-1.2325 0.24157,-3.6588 0,-4.8913 -1.0841,-5.5311 -5.1792,-9.6922 -10.735,-10.908 -1.2062,-0.26396 -4.183,-0.2613 -5.4015,0.0048 -2.745,0.59955 -5.1879,1.9637 -7.0991,3.9643 -2.5208,2.6387 -3.7632,5.7369 -3.7632,9.3845 0,3.6476 1.2424,6.7458 3.7632,9.3845 2.1779,2.2798 4.8645,3.6421 8.1739,4.1447 0.65009,0.09872 3.7004,-0.03293 4.4016,-0.19 z m -33.749,-1.4146 c 1.0238,-0.41447 9.9662,-5.6188 10.372,-6.0366 0.54115,-0.5567 0.65393,-1.1264 0.45235,-2.2849 -0.39777,-2.286 -0.39771,-4.9205 1.03e-4,-7.2071 0.20138,-1.1573 0.08851,-1.7271 -0.4525,-2.2846 -0.40587,-0.41823 -9.3248,-5.6085 -10.398,-6.051 -0.464,-0.19132 -0.8116,-0.25658 -1.3869,-0.26039 -1.7751,-0.01174 -3.0467,0.94675 -3.5902,2.7062 -0.27962,0.90528 -0.76097,3.3582 -0.96717,4.9286 -0.22662,1.7259 -0.31094,5.6262 -0.16079,7.4377 0.23002,2.7752 0.876,6.1845 1.3814,7.291 0.26984,0.59072 0.97438,1.3649 1.4811,1.6275 0.98524,0.51062 2.213,0.5608 3.2683,0.13359 z m 64.629,0.1285 c 0.99008,-0.28136 1.9536,-1.2879 2.3286,-2.4325 0.27043,-0.82566 0.76281,-3.2638 1.0002,-4.9528 0.25863,-1.8403 0.25863,-7.4954 0,-9.3356 -0.23738,-1.689 -0.72976,-4.1271 -1.0002,-4.9528 -0.38169,-1.1653 -1.332,-2.1443 -2.3818,-2.4537 -0.65444,-0.19286 -1.8701,-0.14485 -2.4966,0.09862 -0.55132,0.21423 -9.6423,5.4014 -10.239,5.8422 -0.40763,0.30115 -0.73922,0.92503 -0.76567,1.4406 -0.01084,0.21126 0.06818,0.93808 0.17559,1.6152 0.13943,0.87889 0.1953,1.7593 0.1953,3.0777 0,1.3183 -0.05587,2.1988 -0.1953,3.0777 -0.10741,0.67709 -0.18643,1.4039 -0.17559,1.6152 0.02193,0.42746 0.3114,1.0644 0.60218,1.3251 0.24345,0.21822 9.5639,5.5955 10.146,5.8536 0.86877,0.38515 1.8635,0.44953 2.8063,0.1816 z m -47.507,-27.219 c 0.24926,-0.15427 0.72958,-0.51306 1.0674,-0.79731 1.4074,-1.1843 3.8551,-2.5751 5.7277,-3.2546 1.0992,-0.39887 1.4992,-0.6851 1.7855,-1.2778 0.21102,-0.43687 0.21518,-0.55913 0.21399,-6.2864 -0.0013,-6.1071 -0.01761,-6.3651 -0.4575,-7.2258 -0.50252,-0.98324 -1.3119,-1.6247 -2.4039,-1.9051 -0.79355,-0.20375 -1.2859,-0.15327 -2.7673,0.28375 -5.5505,1.6374 -11.171,4.9389 -15.157,8.9041 -0.94941,0.94429 -1.3014,1.5443 -1.4144,2.4111 -0.15987,1.226 0.21071,2.238 1.1648,3.181 0.52618,0.52007 1.3426,1.0292 5.2641,3.2829 2.5527,1.467 4.8082,2.7495 5.0122,2.8498 0.53955,0.26556 1.383,0.19443 1.9649,-0.1657 z m 34.445,-2.5355 c 4.3257,-2.4829 4.9857,-2.8948 5.5807,-3.4828 0.85757,-0.84755 1.15,-1.5292 1.1518,-2.6846 0.0016,-1.1826 -0.35319,-1.834 -1.6976,-3.1152 -4.1469,-3.9517 -9.458,-7.0272 -14.982,-8.6755 -1.2931,-0.38586 -2.3536,-0.43944 -3.1037,-0.15682 -0.92403,0.34812 -1.7715,1.2143 -2.1907,2.239 -0.21838,0.53386 -0.22313,0.65579 -0.25286,6.4927 -0.03383,6.6414 -0.05124,6.4558 0.67091,7.1541 0.26933,0.26044 0.68682,0.48294 1.4066,0.74964 2.0182,0.74777 3.9944,1.8792 5.7623,3.299 1.1738,0.94276 1.4447,1.0707 2.1783,1.0289 0.53628,-0.03055 0.86418,-0.20111 5.4764,-2.8485 z"
           style="fill:#282850;stroke:url(#linearGradient10739);stroke-width:3.385;paint-order:stroke fill markers"
           id="path23" />
      </g>
      <g
         id="g7617"
         style="display:inline"
         transform="matrix(1.0893784,0,0,1.0893784,-6.0555795,20.79193)">
        <path
           style="display:inline;fill:url(#linearGradient14688);fill-opacity:1;stroke:url(#linearGradient2108);stroke-width:1.69232;stroke-linecap:butt;stroke-linejoin:round;stroke-miterlimit:4;stroke-dasharray:none;stroke-opacity:1"
           d="M 67.7352,62.090311 24.432679,37.089589 67.7352,12.088866 111.03772,37.089589 67.7352,62.090311"
           id="path1051"
           sodipodi:nodetypes="ccccc" />
        <path
           style="fill:#40240f;fill-opacity:0.85;stroke:url(#linearGradient2112);stroke-width:1.69232;stroke-linecap:butt;stroke-linejoin:round;stroke-miterlimit:4;stroke-dasharray:none;stroke-opacity:1"
           d="M 111.03772,37.089588 V 57.090166 L 67.735201,82.090889 V 62.090311 Z"
           id="path1848" />
        <path
           style="fill:#40240f;fill-opacity:0.85;stroke:url(#linearGradient2110);stroke-width:1.6922;stroke-linecap:round;stroke-linejoin:round;stroke-miterlimit:4;stroke-dasharray:none;stroke-opacity:1"
           d="M 24.432679,57.090166 V 37.089588 l 43.302522,25.000723 v 20.000578 z"
           id="path1707" />
        <path
           style="display:inline;fill:url(#linearGradient14690);fill-opacity:1;stroke:url(#linearGradient14083);stroke-width:1.6923;stroke-linecap:butt;stroke-linejoin:miter;stroke-miterlimit:4;stroke-dasharray:none;stroke-opacity:1"
           d="m 25.146952,44.956619 5.250604,3.031439 v 3.592817 l 6.22294,3.592816 v -3.592816 l 6.222942,3.592816 v 3.592816 l 6.222939,3.592816 v -3.592816 l 6.222942,3.592816 v 3.592817 l 6.222939,3.592816 V 65.95214 l 5.445074,3.143713 v -6.51198 L 25.146952,38.444639 Z"
           id="path12482"
           sodipodi:nodetypes="ccccccccccccccccc" />
        <path
           style="display:inline;fill:url(#linearGradient14692);fill-opacity:1;stroke:url(#linearGradient14081);stroke-width:1.6923;stroke-linecap:butt;stroke-linejoin:miter;stroke-miterlimit:4;stroke-dasharray:none;stroke-opacity:1"
           d="m 110.32345,44.956619 -5.2506,3.031439 v 3.592817 l -6.222944,3.592816 v -3.592816 l -6.222945,3.592816 v 3.592816 l -6.222939,3.592816 v -3.592816 l -6.222942,3.592816 v 3.592817 l -6.222939,3.592816 V 65.95214 l -5.445074,3.143713 v -6.51198 L 110.32345,38.444639 Z"
           id="path12482-8"
           sodipodi:nodetypes="ccccccccccccccccc" />
      </g>
    </g>
  </g>
</svg>
